<svg width="15" height="13" viewBox="0 0 15 13" fill="none" xmlns="http://www.w3.org/2000/svg">
<path d="M12.8307 10.1498V0.536735C12.8307 0.37091 12.713 0.236328 12.5674 0.236328H0.982054C0.83671 0.236328 0.71875 0.37091 0.71875 0.536735V10.1498C0.71875 10.3159 0.83671 10.4502 0.982054 10.4502H12.5674C12.713 10.4502 12.8307 10.3159 12.8307 10.1498Z" fill="white" fill-opacity="0.8"/>
<path d="M13.8827 11.3522V1.1383C13.8827 0.972473 13.765 0.837891 13.6194 0.837891C13.4738 0.837891 13.3561 0.972473 13.3561 1.1383V11.0518H1.50744C1.3621 11.0518 1.24414 11.186 1.24414 11.3522C1.24414 11.5183 1.3621 11.6526 1.50744 11.6526H13.6194C13.765 11.6526 13.8827 11.5183 13.8827 11.3522Z" fill="white" fill-opacity="0.8"/>
<path d="M14.6744 1.4375C14.5288 1.4375 14.4111 1.57208 14.4111 1.73791V12.2522H2.03576C1.89042 12.2522 1.77246 12.3865 1.77246 12.5526C1.77246 12.7187 1.89042 12.853 2.03576 12.853H14.6744C14.82 12.853 14.9377 12.7187 14.9377 12.5526V1.73791C14.9377 1.57208 14.82 1.4375 14.6744 1.4375Z" fill="white" fill-opacity="0.8"/>
</svg>
