<svg width="15" height="12" viewBox="0 0 15 12" fill="none" xmlns="http://www.w3.org/2000/svg">
<path d="M12.8727 9.49661V0.869215C12.8727 0.720393 12.755 0.599609 12.6094 0.599609H1.02405C0.878702 0.599609 0.760742 0.720393 0.760742 0.869215V9.49661C0.760742 9.6457 0.878702 9.76622 1.02405 9.76622H12.6094C12.755 9.76622 12.8727 9.6457 12.8727 9.49661Z" fill="black" fill-opacity="0.8"/>
<path d="M13.9247 10.5748V1.40828C13.9247 1.25945 13.807 1.13867 13.6614 1.13867C13.5158 1.13867 13.3981 1.25945 13.3981 1.40828V10.3052H1.54944C1.40409 10.3052 1.28613 10.4258 1.28613 10.5748C1.28613 10.7239 1.40409 10.8445 1.54944 10.8445H13.6614C13.807 10.8445 13.9247 10.7239 13.9247 10.5748Z" fill="black" fill-opacity="0.8"/>
<path d="M14.7164 1.67773C14.5707 1.67773 14.4531 1.79852 14.4531 1.94734V11.3835H2.07776C1.93241 11.3835 1.81445 11.504 1.81445 11.6531C1.81445 11.8022 1.93241 11.9227 2.07776 11.9227H14.7164C14.862 11.9227 14.9797 11.8022 14.9797 11.6531V1.94734C14.9797 1.79852 14.862 1.67773 14.7164 1.67773Z" fill="black" fill-opacity="0.8"/>
</svg>
