<svg width="282" height="176" viewBox="0 0 282 176" fill="none" xmlns="http://www.w3.org/2000/svg">
<g clip-path="url(#clip0)">
<rect x="0.820801" y="0.450378" width="330.9" height="174.82" fill="#222222"/>
<path fill-rule="evenodd" clip-rule="evenodd" d="M4.49028 14.5569C5.65431 14.5569 6.59794 13.6133 6.59794 12.4493C6.59794 11.2852 5.65431 10.3416 4.49028 10.3416C3.32625 10.3416 2.38262 11.2852 2.38262 12.4493C2.38262 13.6133 3.32625 14.5569 4.49028 14.5569ZM12.9481 18.4208C13.0131 18.4643 13.078 18.5075 13.1426 18.5506V25.3173L11.8114 25.0954L11.3677 19.7708L9.70374 19.438C10.3693 20.5843 11.5008 23.6533 10.7021 26.7593L13.3644 37.8523L11.5895 39.0725L7.70701 28.9779L5.82121 30.8637L3.26984 38.6288L0.940318 37.7414L3.04798 29.7544L5.59935 25.0954L4.60099 21.7675L3.60262 23.2096L-1.16734 24.6517L-1.94385 23.6533L2.49333 20.7692C3.15891 18.107 4.04634 15.3337 5.71028 15.0008C7.33386 14.676 10.3304 16.6748 12.9481 18.4208Z" fill="#FFBD0A"/>
<rect x="35.6899" y="53.0286" width="5.12472" height="11.8083" transform="rotate(180 35.6899 53.0286)" fill="#FFBD0A"/>
<rect x="35.6899" y="-3.52628" width="5.12472" height="11.8083" transform="rotate(90 35.6899 -3.52628)" fill="#FFBD0A"/>
<rect x="35.6899" y="47.9044" width="5.12472" height="11.8083" transform="rotate(90 35.6899 47.9044)" fill="#FFBD0A"/>
<rect x="30.5649" y="-3.52628" width="5.12472" height="11.8083" fill="#FFBD0A"/>
<path fill-rule="evenodd" clip-rule="evenodd" d="M138.136 15.4821C139.3 15.4821 140.243 14.5384 140.243 13.3744C140.243 12.2104 139.3 11.2668 138.136 11.2668C136.972 11.2668 136.028 12.2104 136.028 13.3744C136.028 14.5384 136.972 15.4821 138.136 15.4821ZM146.594 19.346C146.659 19.3894 146.723 19.4326 146.788 19.4757V26.2424L145.457 26.0205L145.013 20.6959L143.349 20.3631C144.015 21.5094 145.146 24.5785 144.348 27.6845L147.01 38.7774L145.235 39.9976L141.353 29.9031L139.467 31.7889L136.915 39.5539L134.586 38.6665L136.693 30.6796L139.245 26.0205L138.246 22.6927L137.248 24.1347L132.478 25.5768L131.702 24.5785L136.139 21.6943C136.804 19.0321 137.692 16.2588 139.356 15.926C140.979 15.6012 143.976 17.6 146.594 19.346Z" fill="#FFBD0A"/>
<rect x="111.636" y="53.9537" width="5.12472" height="11.8083" transform="rotate(-90 111.636 53.9537)" fill="#FFBD0A"/>
<rect x="169.335" y="53.9537" width="5.12472" height="11.8083" transform="rotate(180 169.335 53.9537)" fill="#FFBD0A"/>
<rect x="169.335" y="-2.60114" width="5.12472" height="11.8083" transform="rotate(90 169.335 -2.60114)" fill="#FFBD0A"/>
<path fill-rule="evenodd" clip-rule="evenodd" d="M111.636 -2.60126V2.52346H111.636V9.20823H116.761V2.52346L123.444 2.52346V-2.60126H111.636Z" fill="#FFBD0A"/>
<rect x="116.761" y="53.9537" width="5.12472" height="11.8083" transform="rotate(180 116.761 53.9537)" fill="#FFBD0A"/>
<rect x="169.335" y="48.8296" width="5.12472" height="11.8083" transform="rotate(90 169.335 48.8296)" fill="#FFBD0A"/>
<rect x="164.211" y="-2.60114" width="5.12472" height="11.8083" fill="#FFBD0A"/>
<path fill-rule="evenodd" clip-rule="evenodd" d="M272.911 14.557C274.075 14.557 275.019 13.6134 275.019 12.4493C275.019 11.2853 274.075 10.3417 272.911 10.3417C271.747 10.3417 270.804 11.2853 270.804 12.4493C270.804 13.6134 271.747 14.557 272.911 14.557ZM281.369 18.4209C281.434 18.4643 281.499 18.5076 281.563 18.5506V25.3173L280.232 25.0955L279.789 19.7708L278.125 19.4381C278.79 20.5843 279.922 23.6534 279.123 26.7594L281.785 37.8523L280.01 39.0726L276.128 28.978L274.242 30.8638L271.691 38.6288L269.361 37.7414L271.469 29.7545L274.02 25.0955L273.022 21.7676L272.024 23.2097L267.254 24.6517L266.477 23.6534L270.914 20.7692C271.58 18.107 272.467 15.3337 274.131 15.0009C275.755 14.6761 278.751 16.6749 281.369 18.4209Z" fill="#FFBD0A"/>
<rect x="246.411" y="53.0287" width="5.12472" height="11.8083" transform="rotate(-90 246.411 53.0287)" fill="#FFBD0A"/>
<path fill-rule="evenodd" clip-rule="evenodd" d="M251.536 1.59841V8.28324H246.411V-3.52502H246.411L246.411 -3.52631L258.22 -3.52631V1.59841L251.536 1.59841Z" fill="#FFBD0A"/>
<rect x="251.537" y="53.0287" width="5.12472" height="11.8083" transform="rotate(180 251.537 53.0287)" fill="#FFBD0A"/>
<path fill-rule="evenodd" clip-rule="evenodd" d="M5.62065 80.0958C6.78468 80.0958 7.72831 79.1522 7.72831 77.9882C7.72831 76.8242 6.78468 75.8805 5.62065 75.8805C4.45662 75.8805 3.51299 76.8242 3.51299 77.9882C3.51299 79.1522 4.45662 80.0958 5.62065 80.0958ZM14.0784 83.9598C14.1435 84.0032 14.2083 84.0464 14.2729 84.0895V90.8562L12.9418 90.6343L12.4981 85.3097L10.8341 84.9769C11.4997 86.1232 12.6312 89.1922 11.8325 92.2983L14.4948 103.391L12.7199 104.611L8.83738 94.5168L6.95158 96.4026L4.40021 104.168L2.07069 103.28L4.17835 95.2933L6.72973 90.6343L5.73136 87.3064L4.733 88.7485L-0.0369705 90.1906L-0.813477 89.1922L3.6237 86.3081C4.28928 83.6459 5.17671 80.8726 6.84065 80.5397C8.46423 80.215 11.4608 82.2137 14.0784 83.9598Z" fill="#FFBD0A"/>
<rect x="36.8198" y="118.568" width="5.12472" height="11.8083" transform="rotate(180 36.8198 118.568)" fill="#FFBD0A"/>
<rect x="36.8198" y="62.0126" width="5.12472" height="11.8083" transform="rotate(90 36.8198 62.0126)" fill="#FFBD0A"/>
<rect x="36.8198" y="113.443" width="5.12472" height="11.8083" transform="rotate(90 36.8198 113.443)" fill="#FFBD0A"/>
<rect x="31.6948" y="62.0126" width="5.12472" height="11.8083" fill="#FFBD0A"/>
<path fill-rule="evenodd" clip-rule="evenodd" d="M139.266 81.021C140.43 81.021 141.373 80.0774 141.373 78.9133C141.373 77.7493 140.43 76.8057 139.266 76.8057C138.102 76.8057 137.158 77.7493 137.158 78.9133C137.158 80.0774 138.102 81.021 139.266 81.021ZM147.723 84.8849C147.789 84.9283 147.853 84.9716 147.918 85.0146V91.7813L146.587 91.5595L146.143 86.2348L144.479 85.902C145.145 87.0483 146.276 90.1174 145.477 93.2234L148.14 104.316L146.365 105.537L142.482 95.442L140.597 97.3278L138.045 105.093L135.716 104.205L137.823 96.2185L140.375 91.5595L139.376 88.2316L138.378 89.6737L133.608 91.1157L132.832 90.1174L137.269 87.2332C137.934 84.571 138.822 81.7977 140.486 81.4649C142.109 81.1401 145.106 83.1389 147.723 84.8849Z" fill="#FFBD0A"/>
<rect x="112.766" y="119.493" width="5.12472" height="11.8083" transform="rotate(-90 112.766 119.493)" fill="#FFBD0A"/>
<rect x="170.465" y="119.493" width="5.12472" height="11.8083" transform="rotate(180 170.465 119.493)" fill="#FFBD0A"/>
<rect x="170.465" y="62.9378" width="5.12472" height="11.8083" transform="rotate(90 170.465 62.9378)" fill="#FFBD0A"/>
<path fill-rule="evenodd" clip-rule="evenodd" d="M117.89 68.0624V74.7471H112.766V62.9388H112.766L112.766 62.9377L124.574 62.9377V68.0624L117.89 68.0624Z" fill="#FFBD0A"/>
<rect x="117.892" y="119.493" width="5.12472" height="11.8083" transform="rotate(180 117.892 119.493)" fill="#FFBD0A"/>
<rect x="170.465" y="114.368" width="5.12472" height="11.8083" transform="rotate(90 170.465 114.368)" fill="#FFBD0A"/>
<rect x="165.341" y="62.9378" width="5.12472" height="11.8083" fill="#FFBD0A"/>
<path fill-rule="evenodd" clip-rule="evenodd" d="M274.041 80.0959C275.205 80.0959 276.149 79.1523 276.149 77.9883C276.149 76.8242 275.205 75.8806 274.041 75.8806C272.877 75.8806 271.933 76.8242 271.933 77.9883C271.933 79.1523 272.877 80.0959 274.041 80.0959ZM282.499 83.9598C282.564 84.0033 282.629 84.0465 282.693 84.0896V90.8563L281.362 90.6344L280.918 85.3098L279.255 84.977C279.92 86.1233 281.052 89.1923 280.253 92.2983L282.915 103.391L281.14 104.612L277.258 94.5169L275.372 96.4027L272.821 104.168L270.491 103.28L272.599 95.2934L275.15 90.6344L274.152 87.3065L273.153 88.7486L268.383 90.1907L267.607 89.1923L272.044 86.3082C272.71 83.646 273.597 80.8727 275.261 80.5398C276.885 80.215 279.881 82.2138 282.499 83.9598Z" fill="#FFBD0A"/>
<rect x="247.541" y="118.568" width="5.12472" height="11.8083" transform="rotate(-90 247.541 118.568)" fill="#FFBD0A"/>
<path fill-rule="evenodd" clip-rule="evenodd" d="M247.541 62.0126V67.1373H247.541V73.822H252.666V67.1373L259.349 67.1373V62.0126H247.541Z" fill="#FFBD0A"/>
<rect x="252.667" y="118.568" width="5.12472" height="11.8083" transform="rotate(180 252.667 118.568)" fill="#FFBD0A"/>
<path fill-rule="evenodd" clip-rule="evenodd" d="M4.49028 145.635C5.65431 145.635 6.59794 144.691 6.59794 143.527C6.59794 142.363 5.65431 141.419 4.49028 141.419C3.32625 141.419 2.38262 142.363 2.38262 143.527C2.38262 144.691 3.32625 145.635 4.49028 145.635ZM12.9481 149.499C13.0131 149.542 13.078 149.585 13.1426 149.628V156.395L11.8114 156.173L11.3677 150.849L9.70374 150.516C10.3693 151.662 11.5008 154.731 10.7021 157.837L13.3644 168.93L11.5895 170.15L7.70701 160.056L5.82121 161.942L3.26984 169.707L0.940318 168.819L3.04798 160.832L5.59935 156.173L4.60099 152.845L3.60262 154.287L-1.16734 155.729L-1.94385 154.731L2.49333 151.847C3.15891 149.185 4.04634 146.411 5.71028 146.079C7.33386 145.754 10.3304 147.753 12.9481 149.499Z" fill="#FFBD0A"/>
<rect x="35.6899" y="184.106" width="5.12472" height="11.8083" transform="rotate(180 35.6899 184.106)" fill="#FFBD0A"/>
<rect x="35.6899" y="127.552" width="5.12472" height="11.8083" transform="rotate(90 35.6899 127.552)" fill="#FFBD0A"/>
<rect x="30.5649" y="127.552" width="5.12472" height="11.8083" fill="#FFBD0A"/>
<path fill-rule="evenodd" clip-rule="evenodd" d="M138.136 146.56C139.3 146.56 140.243 145.616 140.243 144.452C140.243 143.288 139.3 142.345 138.136 142.345C136.972 142.345 136.028 143.288 136.028 144.452C136.028 145.616 136.972 146.56 138.136 146.56ZM146.594 150.424C146.659 150.467 146.723 150.51 146.788 150.554V157.32L145.457 157.098L145.013 151.774L143.349 151.441C144.015 152.587 145.146 155.656 144.348 158.762L147.01 169.855L145.235 171.075L141.353 160.981L139.467 162.867L136.915 170.632L134.586 169.744L136.693 161.757L139.245 157.098L138.246 153.77L137.248 155.213L132.478 156.655L131.702 155.656L136.139 152.772C136.804 150.11 137.692 147.337 139.356 147.004C140.979 146.679 143.976 148.678 146.594 150.424Z" fill="#FFBD0A"/>
<rect x="169.335" y="185.032" width="5.12472" height="11.8083" transform="rotate(180 169.335 185.032)" fill="#FFBD0A"/>
<rect x="169.335" y="128.477" width="5.12472" height="11.8083" transform="rotate(90 169.335 128.477)" fill="#FFBD0A"/>
<path fill-rule="evenodd" clip-rule="evenodd" d="M111.636 128.477V133.601H111.636V140.286H116.761V133.601L123.444 133.601V128.477H111.636Z" fill="#FFBD0A"/>
<rect x="116.761" y="185.032" width="5.12472" height="11.8083" transform="rotate(180 116.761 185.032)" fill="#FFBD0A"/>
<rect x="164.211" y="128.477" width="5.12472" height="11.8083" fill="#FFBD0A"/>
<path fill-rule="evenodd" clip-rule="evenodd" d="M272.911 145.635C274.075 145.635 275.019 144.691 275.019 143.527C275.019 142.363 274.075 141.42 272.911 141.42C271.747 141.42 270.804 142.363 270.804 143.527C270.804 144.691 271.747 145.635 272.911 145.635ZM281.369 149.499C281.434 149.542 281.499 149.585 281.563 149.629V156.395L280.232 156.173L279.789 150.849L278.125 150.516C278.79 151.662 279.922 154.731 279.123 157.837L281.785 168.93L280.01 170.15L276.128 160.056L274.242 161.942L271.691 169.707L269.361 168.819L271.469 160.832L274.02 156.173L273.022 152.845L272.024 154.288L267.254 155.73L266.477 154.731L270.914 151.847C271.58 149.185 272.467 146.412 274.131 146.079C275.755 145.754 278.751 147.753 281.369 149.499Z" fill="#FFBD0A"/>
<path fill-rule="evenodd" clip-rule="evenodd" d="M251.536 132.676V139.361H246.411V127.553H246.411L246.411 127.552L258.22 127.552V132.676L251.536 132.676Z" fill="#FFBD0A"/>
<rect x="251.537" y="184.107" width="5.12472" height="11.8083" transform="rotate(180 251.537 184.107)" fill="#FFBD0A"/>
<path fill-rule="evenodd" clip-rule="evenodd" d="M71.313 -11.1584C72.4771 -11.1584 73.4207 -12.102 73.4207 -13.266C73.4207 -14.4301 72.4771 -15.3737 71.313 -15.3737C70.149 -15.3737 69.2054 -14.4301 69.2054 -13.266C69.2054 -12.102 70.149 -11.1584 71.313 -11.1584ZM79.7708 -7.29443C79.8359 -7.25103 79.9007 -7.20777 79.9653 -7.16472V-0.39802L78.6342 -0.619879L78.1904 -5.94449L76.5265 -6.27728C77.1921 -5.13101 78.3236 -2.06196 77.5249 1.04406L80.1872 12.137L78.4123 13.3572L74.5298 3.26265L72.644 5.14845L70.0926 12.9135L67.7631 12.0261L69.8707 4.03915L72.4221 -0.619879L71.4237 -3.94776L70.4254 -2.50568L65.6554 -1.0636L64.8789 -2.06196L69.3161 -4.94613C69.9817 -7.60832 70.8691 -10.3816 72.533 -10.7145C74.1566 -11.0392 77.1532 -9.04046 79.7708 -7.29443Z" fill="#FFBD0A"/>
<rect x="44.813" y="27.3134" width="5.12472" height="11.8083" transform="rotate(-90 44.813 27.3134)" fill="#FFBD0A"/>
<rect x="102.513" y="27.3134" width="5.12472" height="11.8083" transform="rotate(180 102.513 27.3134)" fill="#FFBD0A"/>
<rect x="49.9385" y="27.3134" width="5.12472" height="11.8083" transform="rotate(180 49.9385 27.3134)" fill="#FFBD0A"/>
<rect x="102.513" y="22.1891" width="5.12472" height="11.8083" transform="rotate(90 102.513 22.1891)" fill="#FFBD0A"/>
<path fill-rule="evenodd" clip-rule="evenodd" d="M204.958 -11.1584C206.122 -11.1584 207.066 -12.102 207.066 -13.266C207.066 -14.4301 206.122 -15.3737 204.958 -15.3737C203.794 -15.3737 202.85 -14.4301 202.85 -13.266C202.85 -12.102 203.794 -11.1584 204.958 -11.1584ZM213.416 -7.29443C213.481 -7.25102 213.546 -7.20777 213.61 -7.16472V-0.39802L212.279 -0.619879L211.835 -5.94449L210.172 -6.27728C210.837 -5.13101 211.969 -2.06196 211.17 1.04406L213.832 12.137L212.057 13.3572L208.175 3.26265L206.289 5.14845L203.738 12.9135L201.408 12.0261L203.516 4.03915L206.067 -0.619879L205.069 -3.94776L204.07 -2.50568L199.3 -1.0636L198.524 -2.06196L202.961 -4.94613C203.627 -7.60832 204.514 -10.3816 206.178 -10.7145C207.802 -11.0392 210.798 -9.04046 213.416 -7.29443Z" fill="#FFBD0A"/>
<rect x="178.458" y="27.3134" width="5.12472" height="11.8083" transform="rotate(-90 178.458 27.3134)" fill="#FFBD0A"/>
<rect x="236.158" y="27.3134" width="5.12472" height="11.8083" transform="rotate(180 236.158 27.3134)" fill="#FFBD0A"/>
<rect x="183.584" y="27.3134" width="5.12472" height="11.8083" transform="rotate(180 183.584 27.3134)" fill="#FFBD0A"/>
<rect x="236.158" y="22.1891" width="5.12472" height="11.8083" transform="rotate(90 236.158 22.1891)" fill="#FFBD0A"/>
<path fill-rule="evenodd" clip-rule="evenodd" d="M71.313 55.3055C72.4771 55.3055 73.4207 54.3619 73.4207 53.1979C73.4207 52.0338 72.4771 51.0902 71.313 51.0902C70.149 51.0902 69.2054 52.0338 69.2054 53.1979C69.2054 54.3619 70.149 55.3055 71.313 55.3055ZM79.7708 59.1694C79.8359 59.2129 79.9007 59.2561 79.9653 59.2992V66.0659L78.6342 65.844L78.1904 60.5194L76.5265 60.1866C77.1921 61.3329 78.3236 64.4019 77.5249 67.5079L80.1872 78.6009L78.4123 79.8211L74.5298 69.7265L72.644 71.6123L70.0926 79.3774L67.7631 78.4899L69.8707 70.503L72.4221 65.844L71.4237 62.5161L70.4254 63.9582L65.6554 65.4003L64.8789 64.4019L69.3161 61.5177C69.9817 58.8556 70.8691 56.0823 72.533 55.7494C74.1566 55.4246 77.1532 57.4234 79.7708 59.1694Z" fill="#FFBD0A"/>
<rect x="44.813" y="93.7772" width="5.12472" height="11.8083" transform="rotate(-90 44.813 93.7772)" fill="#FFBD0A"/>
<rect x="102.513" y="93.7772" width="5.12472" height="11.8083" transform="rotate(180 102.513 93.7772)" fill="#FFBD0A"/>
<rect x="102.513" y="37.2223" width="5.12472" height="11.8083" transform="rotate(90 102.513 37.2223)" fill="#FFBD0A"/>
<path fill-rule="evenodd" clip-rule="evenodd" d="M44.813 37.2222L44.813 42.3469H44.8132V49.0316H49.9379V42.3469L56.6213 42.3469V37.2222L44.813 37.2222Z" fill="#FFBD0A"/>
<rect x="49.9385" y="93.7772" width="5.12472" height="11.8083" transform="rotate(180 49.9385 93.7772)" fill="#FFBD0A"/>
<rect x="102.513" y="88.653" width="5.12472" height="11.8083" transform="rotate(90 102.513 88.653)" fill="#FFBD0A"/>
<rect x="97.3882" y="37.2223" width="5.12472" height="11.8083" fill="#FFBD0A"/>
<path fill-rule="evenodd" clip-rule="evenodd" d="M204.958 55.3055C206.122 55.3055 207.066 54.3619 207.066 53.1978C207.066 52.0338 206.122 51.0902 204.958 51.0902C203.794 51.0902 202.85 52.0338 202.85 53.1978C202.85 54.3619 203.794 55.3055 204.958 55.3055ZM213.416 59.1694C213.481 59.2128 213.546 59.2561 213.61 59.2991V66.0658L212.279 65.844L211.835 60.5194L210.172 60.1866C210.837 61.3328 211.969 64.4019 211.17 67.5079L213.832 78.6008L212.057 79.8211L208.175 69.7265L206.289 71.6123L203.738 79.3774L201.408 78.4899L203.516 70.503L206.067 65.844L205.069 62.5161L204.07 63.9582L199.3 65.4002L198.524 64.4019L202.961 61.5177C203.627 58.8555 204.514 56.0822 206.178 55.7494C207.802 55.4246 210.798 57.4234 213.416 59.1694Z" fill="#FFBD0A"/>
<rect x="178.458" y="93.7772" width="5.12472" height="11.8083" transform="rotate(-90 178.458 93.7772)" fill="#FFBD0A"/>
<rect x="236.158" y="93.7772" width="5.12472" height="11.8083" transform="rotate(180 236.158 93.7772)" fill="#FFBD0A"/>
<rect x="236.158" y="37.2223" width="5.12472" height="11.8083" transform="rotate(90 236.158 37.2223)" fill="#FFBD0A"/>
<path fill-rule="evenodd" clip-rule="evenodd" d="M178.458 37.2222V42.3469H178.459V49.0316H183.583V42.3469L190.267 42.3469V37.2222H178.458Z" fill="#FFBD0A"/>
<rect x="183.584" y="93.7772" width="5.12472" height="11.8083" transform="rotate(180 183.584 93.7772)" fill="#FFBD0A"/>
<rect x="236.158" y="88.653" width="5.12472" height="11.8083" transform="rotate(90 236.158 88.653)" fill="#FFBD0A"/>
<rect x="231.034" y="37.2223" width="5.12472" height="11.8083" fill="#FFBD0A"/>
<path fill-rule="evenodd" clip-rule="evenodd" d="M71.313 121.769C72.4771 121.769 73.4207 120.826 73.4207 119.662C73.4207 118.498 72.4771 117.554 71.313 117.554C70.149 117.554 69.2054 118.498 69.2054 119.662C69.2054 120.826 70.149 121.769 71.313 121.769ZM79.7708 125.633C79.8359 125.677 79.9007 125.72 79.9653 125.763V132.53L78.6342 132.308L78.1904 126.983L76.5265 126.65C77.1921 127.797 78.3236 130.866 77.5249 133.972L80.1872 145.065L78.4123 146.285L74.5298 136.19L72.644 138.076L70.0926 145.841L67.7631 144.954L69.8707 136.967L72.4221 132.308L71.4237 128.98L70.4254 130.422L65.6554 131.864L64.8789 130.866L69.3161 127.982C69.9817 125.319 70.8691 122.546 72.533 122.213C74.1566 121.889 77.1532 123.887 79.7708 125.633Z" fill="#FFBD0A"/>
<rect x="44.813" y="160.241" width="5.12472" height="11.8083" transform="rotate(-90 44.813 160.241)" fill="#FFBD0A"/>
<rect x="102.513" y="160.241" width="5.12472" height="11.8083" transform="rotate(180 102.513 160.241)" fill="#FFBD0A"/>
<rect x="102.513" y="103.686" width="5.12472" height="11.8083" transform="rotate(90 102.513 103.686)" fill="#FFBD0A"/>
<path fill-rule="evenodd" clip-rule="evenodd" d="M44.813 103.686L44.813 108.811H44.8132V115.496H49.9379V108.811L56.6213 108.811V103.686L44.813 103.686Z" fill="#FFBD0A"/>
<rect x="49.9385" y="160.241" width="5.12472" height="11.8083" transform="rotate(180 49.9385 160.241)" fill="#FFBD0A"/>
<rect x="102.513" y="155.117" width="5.12472" height="11.8083" transform="rotate(90 102.513 155.117)" fill="#FFBD0A"/>
<rect x="97.3882" y="103.686" width="5.12472" height="11.8083" fill="#FFBD0A"/>
<path fill-rule="evenodd" clip-rule="evenodd" d="M204.958 121.769C206.122 121.769 207.066 120.826 207.066 119.662C207.066 118.498 206.122 117.554 204.958 117.554C203.794 117.554 202.85 118.498 202.85 119.662C202.85 120.826 203.794 121.769 204.958 121.769ZM213.416 125.633C213.481 125.677 213.546 125.72 213.61 125.763V132.53L212.279 132.308L211.835 126.983L210.172 126.65C210.837 127.797 211.969 130.866 211.17 133.972L213.832 145.065L212.057 146.285L208.175 136.19L206.289 138.076L203.738 145.841L201.408 144.954L203.516 136.967L206.067 132.308L205.069 128.98L204.07 130.422L199.3 131.864L198.524 130.866L202.961 127.982C203.627 125.319 204.514 122.546 206.178 122.213C207.802 121.888 210.798 123.887 213.416 125.633Z" fill="#FFBD0A"/>
<rect x="178.458" y="160.241" width="5.12472" height="11.8083" transform="rotate(-90 178.458 160.241)" fill="#FFBD0A"/>
<rect x="236.158" y="160.241" width="5.12472" height="11.8083" transform="rotate(180 236.158 160.241)" fill="#FFBD0A"/>
<rect x="236.158" y="103.686" width="5.12472" height="11.8083" transform="rotate(90 236.158 103.686)" fill="#FFBD0A"/>
<path fill-rule="evenodd" clip-rule="evenodd" d="M178.458 103.686V108.811H178.459V115.495H183.583V108.811L190.267 108.811V103.686H178.458Z" fill="#FFBD0A"/>
<rect x="183.584" y="160.241" width="5.12472" height="11.8083" transform="rotate(180 183.584 160.241)" fill="#FFBD0A"/>
<rect x="236.158" y="155.117" width="5.12472" height="11.8083" transform="rotate(90 236.158 155.117)" fill="#FFBD0A"/>
<rect x="231.034" y="103.686" width="5.12472" height="11.8083" fill="#FFBD0A"/>
<rect x="102.513" y="170.15" width="5.12472" height="11.8083" transform="rotate(90 102.513 170.15)" fill="#FFBD0A"/>
<path fill-rule="evenodd" clip-rule="evenodd" d="M44.813 170.15L44.813 175.275H44.8132V181.959H49.9379V175.275L56.6213 175.275V170.15L44.813 170.15Z" fill="#FFBD0A"/>
<rect x="97.3882" y="170.15" width="5.12472" height="11.8083" fill="#FFBD0A"/>
<rect x="236.158" y="170.15" width="5.12472" height="11.8083" transform="rotate(90 236.158 170.15)" fill="#FFBD0A"/>
<path fill-rule="evenodd" clip-rule="evenodd" d="M178.458 170.15V175.275H178.459V181.959H183.583V175.275L190.267 175.275V170.15H178.458Z" fill="#FFBD0A"/>
<rect x="231.034" y="170.15" width="5.12472" height="11.8083" fill="#FFBD0A"/>
</g>
<defs>
<clipPath id="clip0">
<rect width="330.9" height="174.82" fill="white" transform="translate(0.820801 0.450378)"/>
</clipPath>
</defs>
</svg>
